<?xml version="1.0" encoding="UTF-8"?>
<svg id="Layer_2" data-name="Layer 2" xmlns="http://www.w3.org/2000/svg" viewBox="0 0 41.13 41.13">
  <defs>
    <style>
      .cls-1 {
        stroke-width: 1.13px;
      }

      .cls-1, .cls-2 {
        fill: none;
        stroke: #fff;
        stroke-linecap: round;
        stroke-linejoin: round;
      }

      .cls-2 {
        stroke-width: .85px;
      }

      .cls-3 {
        fill: #fff;
        stroke-width: 0px;
      }
    </style>
  </defs>
  <g id="_レイアウト" data-name="レイアウト">
    <g>
      <circle class="cls-1" cx="20.57" cy="20.57" r="20"/>
      <path class="cls-2" d="m4.73,16.65c1.75-7.11,8.17-12.38,15.82-12.38,2.61,0,5.08.61,7.27,1.71"/>
      <path class="cls-2" d="m36.68,18.22c.11.77.17,1.55.17,2.35,0,9-7.3,16.3-16.3,16.3-4.02,0-7.69-1.45-10.53-3.86"/>
      <path class="cls-3" d="m27.38,11.71c-.4,0-.72.18-.96.53l-5.5,8.37-5.53-8.35c-.29-.43-.67-.53-.93-.53-.71,0-1.41.59-1.41,1.2,0,.11.02.32.18.53l4.83,6.95h-2.95c-.74,0-1.07.47-1.07.93s.33.95,1.07.95h4.4v2.5h-4.4c-.76,0-1.1.47-1.1.93s.34.93,1.1.93h4.4v2.83c0,.94.76,1.27,1.41,1.27s1.39-.33,1.39-1.27v-2.83h4.23c.76,0,1.1-.47,1.1-.93,0-.43-.29-.93-1.1-.93h-4.23v-2.5h4.23c.74,0,1.07-.48,1.07-.95s-.33-.93-1.07-.93h-2.8l4.85-6.97c.13-.19.18-.37.18-.57,0-.6-.67-1.17-1.39-1.17Z"/>
    </g>
  </g>
</svg>