<?xml version="1.0" encoding="UTF-8"?>
<svg id="Layer_2" data-name="Layer 2" xmlns="http://www.w3.org/2000/svg" viewBox="0 0 46.2 46.13">
  <defs>
    <style>
      .cls-1 {
        fill: none;
      }

      .cls-1, .cls-2 {
        stroke: #fff;
        stroke-linecap: round;
        stroke-linejoin: round;
        stroke-width: 1.13px;
      }

      .cls-2 {
        fill: #fff;
      }
    </style>
  </defs>
  <g id="_レイアウト" data-name="レイアウト">
    <g>
      <path class="cls-1" d="m18.44,9.39c-2.02-2.02-2.02-5.29,0-7.31C20.45.06,23.73.06,25.75,2.08s2.02,5.29,0,7.31c-2.02,2.02-5.29,2.02-7.31,0Z"/>
      <path class="cls-1" d="m2.08,25.75C.06,23.73.06,20.45,2.08,18.44c2.02-2.02,5.29-2.02,7.31,0,2.02,2.02,2.02,5.29,0,7.31-2.02,2.02-5.29,2.02-7.31,0Z"/>
      <line class="cls-1" x1="35.76" y1="37.52" x2="39.43" y2="45.57"/>
      <polyline class="cls-1" points="34.23 34.16 13.36 24.65 13.68 22.49 29.91 29.84 29.91 29.84 22.54 13.64 24.72 13.28 34.23 34.16"/>
      <line class="cls-1" x1="34.75" y1="34.4" x2="34.23" y2="34.16"/>
      <line class="cls-1" x1="45.64" y1="39.36" x2="34.75" y2="34.4"/>
      <path class="cls-2" d="m20.85,6.98c-.69-.69-.69-1.8,0-2.49s1.8-.69,2.49,0c.69.69.69,1.8,0,2.49-.69.69-1.8.69-2.49,0Z"/>
      <path class="cls-2" d="m4.49,23.34c-.69-.69-.69-1.8,0-2.49s1.8-.69,2.49,0,.69,1.8,0,2.49c-.69.69-1.8.69-2.49,0Z"/>
    </g>
  </g>
</svg>