<?xml version="1.0" encoding="UTF-8"?>
<svg id="Layer_2" data-name="Layer 2" xmlns="http://www.w3.org/2000/svg" viewBox="0 0 30 30">
  <defs>
    <style>
      .cls-1 {
        fill: #646464;
        stroke-width: 0px;
      }
    </style>
  </defs>
  <g id="_レイアウト" data-name="レイアウト">
    <g>
      <path class="cls-1" d="m21.23,30h-12.46c-4.84,0-8.77-3.93-8.77-8.77v-12.46C0,3.93,3.93,0,8.77,0h12.46c4.84,0,8.77,3.93,8.77,8.77v12.46c0,4.84-3.93,8.77-8.77,8.77ZM8.77,2.8c-3.29,0-5.97,2.68-5.97,5.97v12.46c0,3.29,2.68,5.97,5.97,5.97h12.46c3.29,0,5.97-2.68,5.97-5.97v-12.46c0-3.29-2.68-5.97-5.97-5.97h-12.46Z"/>
      <path class="cls-1" d="m24.89,7c0,1.03-.84,1.87-1.87,1.87s-1.87-.84-1.87-1.87.84-1.87,1.87-1.87,1.87.84,1.87,1.87Z"/>
      <path class="cls-1" d="m15,22.75c-4.28,0-7.75-3.48-7.75-7.75s3.48-7.75,7.75-7.75,7.75,3.48,7.75,7.75-3.48,7.75-7.75,7.75Zm0-12.71c-2.73,0-4.96,2.22-4.96,4.96s2.22,4.96,4.96,4.96,4.96-2.22,4.96-4.96-2.22-4.96-4.96-4.96Z"/>
    </g>
  </g>
</svg>