<?xml version="1.0" encoding="UTF-8"?>
<svg id="Layer_2" data-name="Layer 2" xmlns="http://www.w3.org/2000/svg" viewBox="0 0 39.94 45">
  <defs>
    <style>
      .cls-1 {
        fill: #fff;
        stroke-width: 0px;
      }
    </style>
  </defs>
  <g id="_レイアウト" data-name="レイアウト">
    <g>
      <path class="cls-1" d="m15.98,7.23c.01-.19-.06-.37-.18-.5-.13-.14-.31-.21-.49-.21H.68c-.19,0-.36.08-.49.21C.06,6.87,0,7.05,0,7.23l1.79,31.44s0,.09.02.13v4.09c0,1.16.94,2.11,2.11,2.11h8.63c1.34,0,1.62-1.15,1.62-2.11v-4.09s.02-.09.02-.13l1.79-31.44Zm-1.39.64l-.17,3.04h-2.24v-1.95c0-.3-.24-.54-.54-.54s-.54.24-.54.54v1.95h-2.56v-1.95c0-.3-.24-.54-.54-.54s-.54.24-.54.54v1.95h-2.56v-1.95c0-.3-.24-.54-.54-.54s-.54.24-.54.54v1.95H1.57l-.17-3.04h13.19ZM1.63,12h12.72l-1.48,25.96H3.11L1.63,12Zm11.18,30.9c0,.75-.12.75-.26.75H3.92c-.41,0-.75-.34-.75-.75v-3.58h9.65v3.58Z"/>
      <path class="cls-1" d="m37.66,15.79h-.18v-2.5c0-.78-.64-1.42-1.42-1.42h-1.71v-2.19h.48c.3,0,.54-.24.54-.54V.54c0-.3-.24-.54-.54-.54h-6.15c-.3,0-.54.24-.54.54v1.31h-6.1c-.3,0-.54.24-.54.54v2.2c0,.3.24.54.54.54h6.1v4c0,.3.24.54.54.54h.48v2.19h-1.71c-.78,0-1.42.64-1.42,1.42v2.5h-.18c-1.26,0-2.28,1.02-2.28,2.28v24.65c0,1.26,1.02,2.28,2.28,2.28h11.8c1.26,0,2.28-1.02,2.28-2.28v-24.65c0-1.26-1.02-2.28-2.28-2.28ZM29.22,1.08h5.06v7.51h-5.06V1.08Zm-6.65,2.97v-1.11h5.56v1.11h-5.56Zm7.67,5.68h3.02v2.13h-3.02v-2.13Zm-2.86,3.55s.03-.06.06-.06h8.61s.06.03.06.06v2.5h-8.74v-2.5Zm11.2,29.43c0,.51-.42.93-.93.93h-11.8c-.51,0-.93-.42-.93-.93v-24.65c0-.51.42-.93.93-.93h11.8c.51,0,.93.42.93.93v24.65Z"/>
    </g>
  </g>
</svg>