<?xml version="1.0" encoding="UTF-8"?>
<svg id="Layer_2" data-name="Layer 2" xmlns="http://www.w3.org/2000/svg" viewBox="0 0 350 147.12">
  <defs>
    <style>
      .cls-1 {
        fill: #fff;
        stroke-width: 0px;
      }
    </style>
  </defs>
  <g id="_レイアウト" data-name="レイアウト">
    <g>
      <g>
        <path class="cls-1" d="m201.1,112.74v-.68c0-.56.15-1,.47-1.31.27-.27.62-.41,1.05-.41s.75.09,1,.3c.14.12.21.26.21.42,0,.29-.14.44-.4.44-.29,0-.43-.13-.43-.39,0-.12.04-.22.11-.31-.1-.1-.26-.16-.47-.16-.59,0-.88.48-.88,1.42v.68h1.22c.1,0,.16.05.16.15v.06c0,.11-.06.16-.16.16h-1.22v3.53c0,.29.07.47.23.55.11.04.28.07.52.08.1,0,.15.06.15.16,0,.08-.05.12-.15.12h-2.11c-.1,0-.15-.05-.15-.15,0-.08.05-.13.15-.13.15,0,.28-.03.37-.06.22-.07.34-.26.34-.57v-3.53h-.77c-.11,0-.16-.05-.16-.16v-.06c0-.1.05-.15.16-.15h.77Z"/>
        <path class="cls-1" d="m208.21,113.22c.48.48.72,1.11.72,1.88,0,.82-.24,1.46-.72,1.94-.45.44-1,.66-1.65.66s-1.21-.22-1.64-.66c-.48-.48-.72-1.12-.72-1.92s.25-1.43.73-1.91c.44-.44.99-.66,1.63-.66s1.22.22,1.65.67Zm-2.84.3c-.29.41-.44.95-.44,1.6,0,.7.16,1.24.48,1.64.29.38.68.56,1.14.56.6,0,1.03-.26,1.31-.78.22-.41.33-.88.33-1.41,0-.71-.16-1.26-.48-1.66-.3-.39-.68-.57-1.16-.57s-.89.2-1.18.62Z"/>
        <path class="cls-1" d="m211.96,113.85c.15-.36.38-.68.7-.94.27-.23.57-.33.89-.33.38,0,.57.17.57.51,0,.31-.14.46-.42.46s-.42-.14-.42-.41c0-.02,0-.06.02-.14-.26.02-.53.19-.8.5-.22.25-.38.56-.49.92v2.21c0,.3.07.48.22.55.12.04.3.07.52.08.1,0,.16.06.16.16,0,.08-.06.12-.16.12h-2.12c-.11,0-.16-.05-.16-.15,0-.08.05-.13.16-.13.16,0,.29-.03.39-.06.22-.06.33-.25.33-.57v-2.98c0-.32-.08-.5-.24-.56-.09-.03-.25-.05-.47-.06-.11,0-.16-.05-.16-.16,0-.09.05-.14.16-.15.43,0,.82-.05,1.16-.12.11-.02.17.03.17.14v1.1Z"/>
        <path class="cls-1" d="m221.94,113.59c.41-.66.97-1,1.67-1,.55,0,1.03.2,1.42.59.47.48.71,1.12.71,1.92s-.24,1.46-.72,1.94c-.4.41-.88.61-1.42.61-.69,0-1.23-.28-1.63-.84l-.28.69c-.03.08-.09.12-.18.12h-.05c-.11,0-.16-.05-.16-.16v-6.03c0-.31-.07-.49-.22-.55-.08-.03-.24-.05-.48-.06-.1,0-.16-.05-.16-.16,0-.09.06-.15.16-.15.43-.02.82-.05,1.18-.12.11-.02.17.03.17.14v3.05Zm0,2.24c0,.41.22.78.65,1.08.3.21.61.32.94.32.5,0,.9-.24,1.17-.72.22-.37.33-.84.33-1.39,0-.75-.19-1.32-.58-1.7-.28-.28-.61-.42-.98-.42-.49,0-.9.23-1.22.69-.21.28-.31.56-.31.85v1.3Z"/>
        <path class="cls-1" d="m231.89,114.92c0,.06-.05.09-.16.09h-3.6v.17c0,.66.19,1.2.6,1.59.33.34.74.5,1.22.5.66,0,1.19-.3,1.56-.9.06-.09.13-.1.22-.04l.02.02c.08.06.1.13.05.22-.43.76-1.09,1.14-1.97,1.14-.69,0-1.27-.23-1.71-.68-.46-.46-.68-1.08-.68-1.86,0-.83.25-1.47.72-1.95.42-.42.95-.64,1.58-.64s1.12.2,1.51.6c.41.43.64.98.64,1.65v.09Zm-.68-.29c-.02-.57-.18-1.02-.5-1.33-.26-.26-.6-.38-.99-.38-.46,0-.85.2-1.16.6-.22.29-.36.66-.41,1.12h3.05Z"/>
        <path class="cls-1" d="m238.21,117.31c-.16.26-.38.38-.66.38-.47,0-.71-.27-.73-.85-.41.59-.97.88-1.69.88-.44,0-.81-.11-1.09-.35-.31-.25-.47-.59-.47-1.02,0-1.05.9-1.63,2.68-1.73l.51-.03v-.18c0-1-.4-1.49-1.17-1.49-.52,0-.88.17-1.07.52.19.03.28.15.28.36,0,.29-.14.43-.44.43-.32,0-.48-.16-.48-.49,0-.27.15-.52.46-.75.36-.28.8-.41,1.29-.41,1.17,0,1.75.58,1.75,1.74v2.02c0,.67.11,1,.34,1,.1,0,.19-.05.27-.16.07-.09.12-.12.19-.07.06.05.07.12.03.2Zm-1.46-2.37l-.42.02c-1.38.06-2.07.52-2.07,1.33,0,.31.09.56.29.75.19.19.42.28.71.28.39,0,.74-.11,1.05-.36.21-.16.36-.39.45-.66v-1.37Z"/>
        <path class="cls-1" d="m244.78,117.55h-1.17c-.1,0-.16-.05-.16-.15l-.04-.66c-.4.67-.96,1.01-1.68,1.01-1.1,0-1.64-.6-1.64-1.78v-2.3c0-.33-.07-.52-.22-.56-.09-.03-.25-.04-.48-.05-.11,0-.16-.06-.16-.16s.05-.15.16-.16c.43,0,.83-.05,1.19-.12.11-.02.17.03.17.14v3.06c0,1.01.37,1.52,1.11,1.52.34,0,.67-.11.96-.35.29-.23.49-.57.6-.97v-2.35c0-.3-.08-.48-.24-.55-.08-.03-.23-.05-.47-.06-.11,0-.16-.05-.16-.16,0-.09.05-.14.16-.15.39,0,.79-.05,1.19-.12.11-.02.17.03.17.14v3.88c0,.3.1.49.29.56.1.04.25.06.44.07.1,0,.16.05.16.14s-.06.14-.16.14Z"/>
        <path class="cls-1" d="m248.91,117.22c-.32.37-.69.55-1.1.55-.74,0-1.11-.42-1.11-1.26v-3.4h-.69c-.11,0-.16-.05-.16-.16,0-.09.05-.15.15-.16.33-.03.57-.16.72-.37.13-.19.23-.49.32-.9,0-.1.07-.14.16-.14.11,0,.16.05.16.15v1.2h1.32c.11,0,.16.05.16.15v.06c0,.11-.05.16-.16.16h-1.32v3.21c0,.68.2,1.02.62,1.02.25,0,.48-.11.69-.33.08-.08.15-.09.23,0,.07.06.07.14,0,.22Z"/>
        <path class="cls-1" d="m254.82,113.03c-.33.05-.57.24-.7.56l-2.06,5.13c-.23.58-.58.87-1.04.87s-.72-.19-.72-.57c0-.32.16-.48.48-.48.29,0,.43.14.43.43,0,.04,0,.08,0,.1l-.02.09c.23,0,.42-.22.57-.61l.39-1.05-1.69-3.81c-.12-.27-.23-.45-.35-.54-.08-.07-.2-.11-.37-.13-.1,0-.15-.07-.15-.16s.05-.13.16-.13h1.79c.11,0,.16.05.16.15,0,.08-.05.13-.16.14-.33.03-.49.14-.49.32,0,.06.02.16.08.3l1.32,3.12,1.22-3.1c.05-.12.07-.21.07-.28,0-.21-.18-.33-.53-.36-.1,0-.16-.07-.16-.16s.06-.13.16-.13h1.6c.11,0,.16.05.16.13,0,.1-.05.15-.15.16Z"/>
        <path class="cls-1" d="m268.07,113.8c-.27.02-.46.08-.59.17-.14.11-.23.28-.31.53-.21.71-.47,1.27-.76,1.65.59.66,1.13,1.03,1.61,1.1.1,0,.15.06.15.17,0,.08-.05.13-.16.13h-1.12c-.07,0-.13-.02-.19-.08l-.72-.74c-.56.63-1.23.94-2.01.94-.66,0-1.18-.21-1.59-.61-.35-.36-.53-.8-.53-1.32,0-.8.51-1.47,1.52-2.01-.55-.72-.83-1.29-.83-1.75,0-.41.14-.77.44-1.06.34-.34.78-.51,1.32-.51s.92.15,1.19.46c.23.25.34.56.34.94,0,.66-.57,1.28-1.73,1.87.72.85,1.39,1.59,2.04,2.24.4-.54.6-1.06.6-1.56,0-.34-.28-.53-.83-.57-.1,0-.16-.06-.16-.15s.06-.13.16-.13h2.14c.1,0,.15.05.15.14s-.05.14-.15.15Zm-4.49.18c-.67.38-1.01.94-1.01,1.65,0,.45.15.83.45,1.13.3.3.68.45,1.13.45.63,0,1.16-.24,1.58-.73-.7-.74-1.41-1.57-2.16-2.5Zm.49-.65c.81-.4,1.2-.91,1.2-1.5,0-.35-.1-.62-.31-.83-.19-.2-.42-.28-.7-.28-.31,0-.56.1-.77.31-.21.2-.31.46-.31.78,0,.27.08.56.24.87.05.1.14.24.26.42.11.16.2.26.24.31.05-.02.1-.04.14-.07Z"/>
        <path class="cls-1" d="m280.28,117.55h-2.08c-.11,0-.16-.05-.16-.15,0-.08.05-.13.16-.13.14,0,.27-.02.39-.05.21-.05.32-.25.32-.58v-2.09c0-1.01-.37-1.5-1.11-1.5s-1.23.4-1.52,1.19v2.4c0,.3.07.48.23.55.12.04.27.07.48.08.1,0,.16.06.16.16,0,.08-.06.12-.16.12h-2.09c-.1,0-.15-.05-.15-.15,0-.08.05-.13.15-.13.17,0,.3-.03.41-.06.21-.06.32-.25.32-.57v-5.2c0-.3-.08-.48-.23-.55-.09-.03-.25-.05-.48-.06-.11,0-.16-.05-.16-.16,0-.09.05-.15.15-.15.43-.02.83-.05,1.21-.12.1-.02.17.03.17.14v3.04c.43-.64.98-.97,1.66-.97,1.09,0,1.63.6,1.63,1.79v2.23c0,.3.08.48.23.55.12.04.28.07.48.08.1,0,.16.05.16.14s-.06.14-.16.14Z"/>
        <path class="cls-1" d="m286.23,114.92c0,.06-.05.09-.16.09h-3.6v.17c0,.66.19,1.2.6,1.59.33.34.74.5,1.22.5.66,0,1.19-.3,1.56-.9.06-.09.13-.1.22-.04l.02.02c.08.06.1.13.05.22-.43.76-1.09,1.14-1.97,1.14-.69,0-1.27-.23-1.71-.68-.46-.46-.68-1.08-.68-1.86,0-.83.25-1.47.72-1.95.42-.42.95-.64,1.58-.64s1.13.2,1.52.6c.41.43.64.98.64,1.65v.09Zm-.68-.29c-.02-.57-.18-1.02-.5-1.33-.26-.26-.6-.38-.99-.38-.46,0-.85.2-1.16.6-.22.29-.36.66-.41,1.12h3.05Z"/>
        <path class="cls-1" d="m292.55,117.31c-.16.26-.38.38-.66.38-.47,0-.71-.27-.73-.85-.41.59-.97.88-1.69.88-.44,0-.81-.11-1.09-.35-.31-.25-.47-.59-.47-1.02,0-1.05.9-1.63,2.68-1.73l.51-.03v-.18c0-1-.4-1.49-1.17-1.49-.52,0-.88.17-1.07.52.19.03.28.15.28.36,0,.29-.14.43-.44.43-.32,0-.48-.16-.48-.49,0-.27.15-.52.46-.75.36-.28.8-.41,1.29-.41,1.17,0,1.75.58,1.75,1.74v2.02c0,.67.11,1,.34,1,.1,0,.19-.05.27-.16.07-.09.12-.12.19-.07.06.05.07.12.03.2Zm-1.46-2.37l-.42.02c-1.38.06-2.07.52-2.07,1.33,0,.31.09.56.29.75.19.19.42.28.71.28.39,0,.74-.11,1.05-.36.21-.16.36-.39.45-.66v-1.37Z"/>
        <path class="cls-1" d="m295.89,117.55h-2.11c-.1,0-.15-.05-.15-.15,0-.08.05-.13.15-.13.15,0,.28-.03.4-.06.22-.05.34-.24.34-.57v-5.2c0-.3-.08-.48-.23-.55-.09-.03-.25-.05-.49-.06-.11,0-.16-.05-.16-.16,0-.09.05-.15.15-.15.42-.02.83-.06,1.22-.12.1-.02.17.03.17.14v6.1c0,.31.08.49.26.56.11.04.26.06.46.07.1,0,.16.05.16.14s-.06.14-.16.14Z"/>
        <path class="cls-1" d="m300.1,117.22c-.32.37-.69.55-1.1.55-.74,0-1.11-.42-1.11-1.26v-3.4h-.69c-.11,0-.16-.05-.16-.16,0-.09.05-.15.15-.16.33-.03.57-.16.72-.37.13-.19.23-.49.32-.9,0-.1.07-.14.16-.14.11,0,.16.05.16.15v1.2h1.32c.11,0,.16.05.16.15v.06c0,.11-.05.16-.16.16h-1.32v3.21c0,.68.2,1.02.62,1.02.25,0,.48-.11.69-.33.08-.08.15-.09.23,0,.07.06.07.14,0,.22Z"/>
        <path class="cls-1" d="m306.58,117.55h-2.08c-.11,0-.16-.05-.16-.15,0-.08.05-.13.16-.13.14,0,.27-.02.39-.05.21-.05.32-.25.32-.58v-2.09c0-1.01-.37-1.5-1.11-1.5s-1.23.4-1.52,1.19v2.4c0,.3.07.48.23.55.12.04.27.07.48.08.1,0,.16.06.16.16,0,.08-.06.12-.16.12h-2.09c-.1,0-.15-.05-.15-.15,0-.08.05-.13.15-.13.17,0,.3-.03.41-.06.21-.06.32-.25.32-.57v-5.2c0-.3-.08-.48-.23-.55-.09-.03-.25-.05-.48-.06-.11,0-.16-.05-.16-.16,0-.09.05-.15.15-.15.43-.02.83-.05,1.21-.12.1-.02.17.03.17.14v3.04c.43-.64.98-.97,1.66-.97,1.09,0,1.63.6,1.63,1.79v2.23c0,.3.08.48.23.55.12.04.28.07.48.08.1,0,.16.05.16.14s-.06.14-.16.14Z"/>
      </g>
      <g>
        <path class="cls-1" d="m174.01,94.7l-.34,5.68c-.03.31-.22.47-.5.47h-15.84c-.31,0-.47-.15-.47-.47,0-.25.15-.4.47-.43.78-.06,1.37-.16,1.77-.34.62-.28.93-.96.93-2.05v-15.22c0-1.06-.31-1.71-.87-2.02-.37-.19-1.02-.34-1.96-.47-.31-.03-.47-.19-.47-.5,0-.25.16-.4.47-.4h7.7c.31,0,.5.19.5.5,0,.25-.19.37-.5.4-.9.12-1.55.28-1.96.47-.5.28-.75.93-.75,2.02v15.19c0,.93.16,1.52.5,1.77.4.37,1.12.53,2.11.53h1.89c2.58,0,4.29-.47,5.09-1.46.65-.81,1.09-2.05,1.33-3.7.03-.31.19-.47.5-.47.28,0,.4.19.37.5Z"/>
        <path class="cls-1" d="m190.22,100.1c-.5.81-1.18,1.18-2.05,1.18-1.46,0-2.21-.84-2.27-2.64-1.27,1.83-3.01,2.73-5.28,2.73-1.37,0-2.52-.34-3.42-1.09-.96-.78-1.46-1.83-1.46-3.17,0-3.26,2.79-5.09,8.35-5.4l1.58-.09v-.56c0-3.11-1.24-4.66-3.66-4.66-1.62,0-2.73.53-3.32,1.62.59.09.87.47.87,1.12,0,.9-.43,1.33-1.37,1.33-.99,0-1.49-.5-1.49-1.52,0-.84.47-1.62,1.43-2.33,1.12-.87,2.48-1.27,4.04-1.27,3.63,0,5.47,1.8,5.47,5.43v6.3c0,2.08.34,3.11,1.06,3.11.31,0,.59-.16.84-.5.22-.28.37-.37.59-.22.19.15.22.37.09.62Zm-4.53-7.39l-1.3.06c-4.32.19-6.46,1.62-6.46,4.16,0,.96.28,1.74.9,2.33.59.59,1.3.87,2.2.87,1.21,0,2.3-.34,3.26-1.12.65-.5,1.12-1.21,1.4-2.05v-4.25Z"/>
        <path class="cls-1" d="m228.48,79.85c-1.4.16-2.42.99-2.98,2.45l-7.27,18.82c-.12.25-.28.37-.56.37h-.12c-.25,0-.43-.12-.56-.37l-7.24-18.85c-.56-1.43-1.52-2.24-2.95-2.42-.31-.03-.47-.19-.47-.5,0-.25.15-.4.5-.4h7.24c.31,0,.47.19.47.5,0,.25-.16.37-.5.37-1.46.09-2.21.5-2.21,1.12,0,.4.12.9.34,1.52l5.81,15.46,5.9-15.65c.22-.62.34-1.09.34-1.4,0-.62-.71-.96-2.17-1.06-.34,0-.5-.16-.5-.47,0-.25.16-.4.47-.4h6.43c.34,0,.5.16.5.43s-.16.43-.47.47Z"/>
        <path class="cls-1" d="m236.8,100.85h-6.4c-.34,0-.5-.15-.5-.47,0-.25.15-.4.5-.4.43-.03.84-.09,1.18-.19.68-.19,1.02-.78,1.02-1.77v-9.29c0-.99-.25-1.55-.75-1.74-.25-.09-.74-.16-1.46-.19-.34,0-.5-.16-.5-.5,0-.28.15-.43.5-.47,1.31-.03,2.55-.16,3.73-.37.34-.06.53.09.53.43v12.11c0,.93.25,1.49.71,1.71.37.12.84.22,1.43.25.34,0,.5.16.5.43s-.16.43-.5.43Zm-2.05-21.52c.31.34.47.68.47,1.12,0,1.06-.53,1.55-1.58,1.55s-1.55-.5-1.55-1.55.53-1.58,1.55-1.58c.43,0,.81.16,1.12.47Z"/>
        <path class="cls-1" d="m253.72,92.65c0,.19-.16.28-.5.28h-11.21v.53c0,2.05.59,3.73,1.86,4.97,1.02,1.06,2.3,1.55,3.79,1.55,2.05,0,3.7-.93,4.87-2.79.19-.28.4-.31.68-.12l.06.06c.25.19.31.4.16.68-1.34,2.36-3.38,3.54-6.15,3.54-2.14,0-3.94-.71-5.34-2.11s-2.11-3.38-2.11-5.81c0-2.58.78-4.6,2.24-6.09,1.3-1.3,2.95-1.99,4.94-1.99s3.51.62,4.72,1.86c1.27,1.33,1.99,3.04,1.99,5.15v.28Zm-2.11-.9c-.06-1.77-.56-3.17-1.55-4.16-.81-.81-1.86-1.18-3.07-1.18-1.43,0-2.64.62-3.6,1.86-.68.9-1.12,2.05-1.27,3.48h9.5Z"/>
        <path class="cls-1" d="m285.86,97.12c.25.19.31.4.16.68-1.37,2.36-3.39,3.54-6.06,3.54-2.05,0-3.79-.71-5.12-2.08-1.43-1.46-2.14-3.38-2.14-5.81,0-2.55.78-4.53,2.27-6.06,1.33-1.34,3.04-2.05,5.09-2.05,1.74,0,3.17.43,4.35,1.37.9.71,1.33,1.46,1.33,2.27,0,1.06-.47,1.58-1.43,1.58-.9,0-1.37-.4-1.37-1.27,0-.59.25-.99.75-1.21-.75-1.15-1.93-1.68-3.54-1.68-1.8,0-3.17.78-4.04,2.42-.75,1.27-1.12,2.76-1.12,4.47,0,1.89.5,3.48,1.49,4.72.99,1.24,2.27,1.89,3.85,1.89,1.99,0,3.54-.9,4.75-2.76.16-.28.4-.31.68-.12l.09.09Z"/>
        <path class="cls-1" d="m295.42,100.85h-6.58c-.31,0-.47-.15-.47-.47,0-.25.15-.4.47-.4.47-.03.87-.09,1.24-.19.68-.16,1.06-.74,1.06-1.77v-16.21c0-.93-.25-1.49-.72-1.71-.28-.09-.78-.15-1.52-.19-.34,0-.5-.16-.5-.5,0-.28.16-.47.47-.47,1.31-.06,2.58-.19,3.79-.37.31-.06.53.09.53.43v19.01c0,.96.25,1.52.81,1.74.34.12.81.19,1.43.22.31,0,.5.16.5.43s-.19.43-.5.43Z"/>
        <path class="cls-1" d="m304.71,100.85h-6.4c-.34,0-.5-.15-.5-.47,0-.25.15-.4.5-.4.43-.03.84-.09,1.18-.19.68-.19,1.02-.78,1.02-1.77v-9.29c0-.99-.25-1.55-.75-1.74-.25-.09-.74-.16-1.46-.19-.34,0-.5-.16-.5-.5,0-.28.15-.43.5-.47,1.3-.03,2.55-.16,3.73-.37.34-.06.53.09.53.43v12.11c0,.93.25,1.49.71,1.71.37.12.84.22,1.43.25.34,0,.5.16.5.43s-.16.43-.5.43Zm-2.05-21.52c.31.34.47.68.47,1.12,0,1.06-.53,1.55-1.58,1.55s-1.55-.5-1.55-1.55.53-1.58,1.55-1.58c.43,0,.81.16,1.12.47Z"/>
        <path class="cls-1" d="m324.42,100.85h-6.49c-.31,0-.5-.15-.5-.47,0-.25.19-.4.5-.4.43-.03.84-.09,1.18-.15.68-.16,1.02-.78,1.02-1.8v-6.52c0-3.14-1.15-4.69-3.45-4.69s-3.82,1.24-4.72,3.73v7.48c0,.96.28,1.52.84,1.74.31.12.78.19,1.34.22.31,0,.5.19.5.5,0,.25-.19.37-.5.37h-6.49c-.34,0-.5-.15-.5-.47,0-.25.15-.4.5-.4.5-.03.9-.09,1.21-.19.68-.19,1.02-.78,1.02-1.77v-9.29c0-.99-.25-1.55-.74-1.74-.28-.09-.78-.16-1.49-.19-.34,0-.5-.16-.5-.5,0-.28.15-.43.5-.47,1.34-.03,2.58-.16,3.67-.37.34-.06.53.09.53.43v2.73c1.27-2.11,3.04-3.17,5.28-3.17,3.38,0,5.09,1.86,5.09,5.59v6.96c0,.93.31,1.52.9,1.74.31.12.75.19,1.3.22.31,0,.5.16.5.43s-.19.43-.5.43Z"/>
        <path class="cls-1" d="m333.55,100.85h-6.4c-.34,0-.5-.15-.5-.47,0-.25.15-.4.5-.4.43-.03.84-.09,1.18-.19.68-.19,1.02-.78,1.02-1.77v-9.29c0-.99-.25-1.55-.75-1.74-.25-.09-.74-.16-1.46-.19-.34,0-.5-.16-.5-.5,0-.28.15-.43.5-.47,1.31-.03,2.55-.16,3.73-.37.34-.06.53.09.53.43v12.11c0,.93.25,1.49.71,1.71.37.12.84.22,1.43.25.34,0,.5.16.5.43s-.16.43-.5.43Zm-2.05-21.52c.31.34.47.68.47,1.12,0,1.06-.53,1.55-1.58,1.55s-1.55-.5-1.55-1.55.53-1.58,1.55-1.58c.43,0,.81.16,1.12.47Z"/>
        <path class="cls-1" d="m349.76,97.12c.25.19.31.4.16.68-1.37,2.36-3.39,3.54-6.06,3.54-2.05,0-3.79-.71-5.12-2.08-1.43-1.46-2.14-3.38-2.14-5.81,0-2.55.78-4.53,2.27-6.06,1.33-1.34,3.04-2.05,5.09-2.05,1.74,0,3.17.43,4.35,1.37.9.71,1.33,1.46,1.33,2.27,0,1.06-.47,1.58-1.43,1.58-.9,0-1.37-.4-1.37-1.27,0-.59.25-.99.75-1.21-.75-1.15-1.93-1.68-3.54-1.68-1.8,0-3.17.78-4.04,2.42-.75,1.27-1.12,2.76-1.12,4.47,0,1.89.5,3.48,1.49,4.72.99,1.24,2.27,1.89,3.85,1.89,1.99,0,3.54-.9,4.75-2.76.16-.28.4-.31.68-.12l.09.09Z"/>
      </g>
      <g>
        <g>
          <path class="cls-1" d="m88.09,41.09l-.02-.05c2.54-.36,5.15-.54,7.84-.54,3.56,0,7.01.36,10.38,1.06l1.27-3.94c-3.78-.82-7.66-1.23-11.65-1.23-10.85,0-20.59,2.76-29.21,8.25l1.31,4.07c6.08-3.98,12.77-6.51,20.07-7.62Z"/>
          <path class="cls-1" d="m121.04,47.17l1.24-4.06c-2.17-1.18-4.38-2.2-6.62-3.07l-1.26,3.94c2.26.89,4.47,1.95,6.64,3.18Z"/>
          <path class="cls-1" d="m128.57,131.19c-.28.23-.54.47-.82.7-11.14,8.8-23.74,12.36-37.82,10.71-8.68-1.02-16.34-3.84-22.99-8.43-.27-.19-.55-.39-.82-.59-.33-.24-.66-.48-.99-.73-.4-.31-.8-.62-1.19-.94-.26-.21-.53-.43-.79-.65-.3-.25-.59-.51-.88-.77-2.32-2.06-4.5-4.37-6.53-6.94-8.79-11.14-12.36-23.75-10.71-37.82.92-7.81,3.3-14.8,7.14-20.98.17-.27.35-.55.52-.82.16-.24.32-.48.48-.72,1.84-2.68,3.98-5.24,6.41-7.68.42-.42.85-.82,1.28-1.22.01-.01.03-.03.04-.04l-1.38-4.3c-4.58,3.96-8.33,8.4-11.25,13.3-.19.31-.37.63-.56.95-.09.15-.18.3-.26.45-4.67,8.11-7.02,17.17-7.02,27.18,0,15.27,5.43,28.3,16.28,39.09.35.35.71.67,1.06,1.01.25.24.51.49.76.72.16.15.32.29.48.43,2.54,2.33,5.25,4.37,8.12,6.11.48.29.96.57,1.44.85.12.07.24.14.37.21,8,4.53,16.92,6.82,26.77,6.85v-.05c12.67.17,24.14-3.78,34.43-11.85l-1.57-4.04Z"/>
          <g>
            <polygon class="cls-1" points="81.18 89.68 90.83 89.68 92.34 84.98 79.67 84.98 81.18 89.68"/>
            <path class="cls-1" d="m47.04,84.98c-.04.32-.1.64-.14.97-.15,1.26-.24,2.5-.3,3.73h25.66l-1.51-4.7h-23.72Z"/>
            <path class="cls-1" d="m4.7,84.98V0H0v89.67h38.62c.05-1.59.17-3.15.34-4.7H4.7Z"/>
          </g>
        </g>
        <path class="cls-1" d="m121.61,0h4.92s-38.06,118.81-38.06,118.81h-4.9L45.5,0h4.9l35.6,110.81L121.61,0Z"/>
      </g>
    </g>
  </g>
</svg>