<?xml version="1.0" encoding="UTF-8"?>
<svg id="Layer_2" data-name="Layer 2" xmlns="http://www.w3.org/2000/svg" viewBox="0 0 58.32 41.13">
  <defs>
    <style>
      .cls-1 {
        fill: none;
        stroke: #fff;
        stroke-linecap: round;
        stroke-linejoin: round;
        stroke-width: 1.13px;
      }

      .cls-2 {
        fill: #fff;
        stroke-width: 0px;
      }
    </style>
  </defs>
  <g id="_レイアウト" data-name="レイアウト">
    <g>
      <path class="cls-1" d="m8.02,31.22c-.21,0-.43-.08-.59-.24-.27-.26-.34-.66-.18-.99l1.78-3.66C3.93,24.35.57,19.47.57,13.91.57,6.55,6.55.57,13.91.57h12.45c7.36,0,13.35,5.99,13.35,13.35s-5.99,13.35-13.35,13.35h-10.82l-7.11,3.86c-.13.07-.27.1-.41.1Z"/>
      <g>
        <path class="cls-2" d="m13.39,14.35c0,.76-.62,1.38-1.38,1.38s-1.38-.62-1.38-1.38.62-1.38,1.38-1.38,1.38.62,1.38,1.38Z"/>
        <circle class="cls-2" cx="20.14" cy="14.35" r="1.38"/>
        <circle class="cls-2" cx="28.26" cy="14.35" r="1.38"/>
      </g>
      <path class="cls-1" d="m43.06,9.91h1.34c7.36,0,13.35,5.99,13.35,13.35,0,2.91-.92,5.68-2.66,8-1.48,1.98-3.52,3.53-5.81,4.43l1.78,3.66c.16.33.09.73-.18.99-.16.16-.37.24-.59.24-.14,0-.28-.03-.41-.1l-7.11-3.86h-10.82c-4.61,0-8.82-2.34-11.26-6.18"/>
    </g>
  </g>
</svg>